<?xml version="1.0" encoding="UTF-8"?>
<svg xmlns="http://www.w3.org/2000/svg" width="240" height="134" viewBox="0 0 240 134" role="img" aria-label="appautomaton/latex-arxiv-SKILL">
  <style>
    .title { font: 600 13px 'Segoe UI', Ubuntu, Sans-Serif; fill: #0969DA; }
    .desc { font: 400 12px 'Segoe UI', Ubuntu, Sans-Serif; fill: #57606A; }
    .meta { font: 400 11px 'Segoe UI', Ubuntu, Sans-Serif; fill: #57606A; }
  </style>
  <rect x="0.5" y="0.5" width="239" height="133" rx="4.5" fill="#FFFFFF" stroke="#D0D7DE"/>
  <svg x="16" y="16" width="14" height="14" viewBox="0 0 16 16" fill="#0969DA" aria-hidden="true"><path fill-rule="evenodd" d="M2 2.5A2.5 2.5 0 014.5 0h8.75a.75.75 0 01.75.75v12.5a.75.75 0 01-.75.75h-2.5a.75.75 0 110-1.5h1.75v-2h-8a1 1 0 00-.714 1.7.75.75 0 01-1.072 1.05A2.495 2.495 0 012 11.5v-9zm10.5-1V9h-8c-.356 0-.694.074-1 .208V2.5a1 1 0 011-1h8zM5 12.25v3.25a.25.25 0 00.4.2l1.45-1.087a.25.25 0 01.3 0L8.6 15.7a.25.25 0 00.4-.2v-3.25a.25.25 0 00-.25-.25h-3.5a.25.25 0 00-.25.25z"/></svg>
  <text x="36" y="29" class="title">latex-arxiv-SKILL</text>
  <text x="16" y="55" class="desc">A highly customizable agentic</text>
  <text x="16" y="71" class="desc">harness for arXiv-ready ML/AI</text>
  <text x="16" y="87" class="desc">review papers (and beyond).…</text>
  <circle cx="20" cy="112" r="4" fill="#0969DA"/>
  <text x="30" y="115" class="meta">TeX</text>
  <svg x="104.5" y="105" width="12" height="12" viewBox="0 0 16 16" fill="#0969DA" aria-hidden="true"><path fill-rule="evenodd" d="M8 .25a.75.75 0 01.673.418l1.882 3.815 4.21.612a.75.75 0 01.416 1.279l-3.046 2.97.719 4.192a.75.75 0 01-1.088.791L8 12.347l-3.766 1.98a.75.75 0 01-1.088-.79l.72-4.194L.818 6.374a.75.75 0 01.416-1.28l4.21-.611L7.327.668A.75.75 0 018 .25zm0 2.445L6.615 5.5a.75.75 0 01-.564.41l-3.097.45 2.24 2.184a.75.75 0 01.216.664l-.528 3.084 2.769-1.456a.75.75 0 01.698 0l2.77 1.456-.53-3.084a.75.75 0 01.216-.664l2.24-2.183-3.096-.45a.75.75 0 01-.564-.41L8 2.694v.001z"/></svg>
  <text x="120.5" y="115" class="meta">382</text>
  <svg x="195" y="105" width="12" height="12" viewBox="0 0 16 16" fill="#0969DA" aria-hidden="true"><path fill-rule="evenodd" d="M5 3.25a.75.75 0 11-1.5 0 .75.75 0 011.5 0zm0 2.122a2.25 2.25 0 10-1.5 0v.878A2.25 2.25 0 005.75 8.5h1.5v2.128a2.251 2.251 0 101.5 0V8.5h1.5a2.25 2.25 0 002.25-2.25v-.878a2.25 2.25 0 10-1.5 0v.878a.75.75 0 01-.75.75h-4.5A.75.75 0 015 6.25v-.878zm3.75 7.378a.75.75 0 11-1.5 0 .75.75 0 011.5 0zm3-8.75a.75.75 0 100-1.5.75.75 0 000 1.5z"/></svg>
  <text x="211" y="115" class="meta">34</text>
</svg>
